<svg aria-hidden="true" style="position: absolute; width: 0; height: 0; overflow: hidden;" version="1.1" xmlns="http://www.w3.org/2000/svg" xmlns:xlink="http://www.w3.org/1999/xlink">
<defs>
<symbol id="facebook-letter-logo" viewBox="0 0 32 32">
<title>facebook-letter-logo</title>
<path d="M11.761 6.197c0 0.806 0 4.406 0 4.406h-3.228v5.387h3.228v16.009h6.631v-16.009h4.449c0 0 0.417-2.583 0.619-5.408-0.579 0-5.043 0-5.043 0s0-3.134 0-3.684c0-0.551 0.723-1.291 1.437-1.291 0.713 0 2.218 0 3.613 0 0-0.734 0-3.268 0-5.609-1.861 0-3.979 0-4.912 0-6.958-0-6.794 5.392-6.794 6.197z"></path>
</symbol>
<symbol id="instagram-logo" viewBox="0 0 32 32">
<title>instagram-logo</title>
<path d="M4.107 0h23.785c2.259 0 4.107 1.672 4.107 4.107v23.786c0 2.435-1.848 4.107-4.107 4.107h-23.785c-2.26 0-4.107-1.672-4.107-4.107v-23.786c0-2.435 1.848-4.107 4.107-4.107v0zM23.311 3.555c-0.792 0-1.44 0.648-1.44 1.441v3.448c0 0.792 0.648 1.441 1.44 1.441h3.617c0.792 0 1.441-0.648 1.441-1.441v-3.448c0-0.793-0.648-1.441-1.441-1.441h-3.617zM28.383 13.533h-2.816c0.266 0.87 0.411 1.792 0.411 2.745 0 5.323-4.454 9.637-9.947 9.637s-9.946-4.315-9.946-9.637c0-0.954 0.144-1.875 0.411-2.745h-2.939v13.517c0 0.7 0.572 1.272 1.272 1.272h22.284c0.7 0 1.272-0.572 1.272-1.272v-13.517h-0.001zM16.030 9.703c-3.549 0-6.427 2.788-6.427 6.227s2.878 6.227 6.427 6.227c3.549 0 6.427-2.788 6.427-6.227s-2.878-6.227-6.427-6.227z"></path>
</symbol>
<symbol id="pinterest-logo" viewBox="0 0 32 32">
<title>pinterest-logo</title>
<path d="M28.3 8.898c-0.874-6.324-7.176-9.544-13.9-8.79-5.316 0.596-10.616 4.894-10.836 11.040-0.134 3.752 0.93 6.566 4.5 7.358 1.546-2.736-0.498-3.334-0.818-5.316-1.31-8.1 9.344-13.632 14.924-7.972 3.864 3.92 1.318 15.972-4.906 14.718-5.962-1.196 2.92-10.79-1.838-12.672-3.868-1.532-5.922 4.68-4.088 7.768-1.076 5.31-3.392 10.31-2.454 16.968 3.040-2.208 4.066-6.43 4.906-10.836 1.528 0.93 2.346 1.892 4.294 2.042 7.184 0.558 11.202-7.172 10.216-14.308z"></path>
</symbol>
<symbol id="searcher" viewBox="0 0 32 32">
<title>searcher</title>
<path d="M31.217 27.435l-6.952-6.952c-0.037-0.037-0.080-0.063-0.119-0.097 1.368-2.075 2.166-4.559 2.166-7.23 0-7.266-5.89-13.156-13.156-13.156s-13.156 5.89-13.156 13.156c0 7.266 5.89 13.156 13.156 13.156 2.671 0 5.155-0.798 7.23-2.166 0.034 0.038 0.060 0.082 0.097 0.119l6.952 6.952c1.044 1.044 2.737 1.044 3.782 0s1.044-2.737 0-3.782zM13.156 21.751c-4.747 0-8.595-3.848-8.595-8.595s3.848-8.595 8.595-8.595c4.747 0 8.595 3.848 8.595 8.595s-3.848 8.595-8.595 8.595z"></path>
</symbol>
<symbol id="shopping-cart" viewBox="0 0 32 32">
<title>shopping-cart</title>
<path d="M31.815 6.686c-0.183-0.263-0.478-0.425-0.798-0.438l-19.85-0.856c-0.57-0.025-1.045 0.415-1.070 0.982s0.415 1.045 0.982 1.070l18.506 0.798-3.639 11.353h-16.193l-2.925-15.929c-0.064-0.349-0.304-0.64-0.635-0.77l-4.791-1.882c-0.528-0.207-1.124 0.053-1.331 0.58s0.052 1.124 0.58 1.331l4.26 1.674 2.977 16.208c0.090 0.487 0.514 0.841 1.010 0.841h0.494l-1.128 3.132c-0.094 0.262-0.056 0.554 0.105 0.782s0.421 0.364 0.7 0.364h0.791c-0.49 0.545-0.791 1.264-0.791 2.053 0 1.698 1.382 3.080 3.080 3.080s3.080-1.382 3.080-3.080c0-0.79-0.301-1.508-0.791-2.053h6.716c-0.49 0.545-0.791 1.264-0.791 2.053 0 1.698 1.382 3.080 3.080 3.080s3.080-1.382 3.080-3.080c0-0.79-0.301-1.508-0.791-2.053h0.962c0.473 0 0.856-0.383 0.856-0.856s-0.383-0.856-0.856-0.856h-16.408l0.924-2.567h15.484c0.447 0 0.842-0.288 0.978-0.713l4.278-13.348c0.098-0.305 0.048-0.638-0.135-0.9zM12.15 29.348c-0.755 0-1.369-0.614-1.369-1.369s0.614-1.369 1.369-1.369 1.369 0.614 1.369 1.369-0.614 1.369-1.369 1.369zM23.444 29.348c-0.755 0-1.369-0.614-1.369-1.369s0.614-1.369 1.369-1.369 1.369 0.614 1.369 1.369-0.614 1.369-1.369 1.369z"></path>
</symbol>
<symbol id="twitter-logo" viewBox="0 0 32 32">
<title>twitter-logo</title>
<path d="M32 6.079c-1.178 0.522-2.442 0.876-3.769 1.034 1.356-0.812 2.394-2.1 2.885-3.629-1.272 0.752-2.675 1.298-4.171 1.594-1.198-1.278-2.901-2.074-4.791-2.074-3.625 0-6.565 2.939-6.565 6.563 0 0.514 0.058 1.016 0.17 1.496-5.455-0.274-10.292-2.887-13.529-6.859-0.566 0.968-0.888 2.096-0.888 3.299 0 2.278 1.16 4.287 2.919 5.463-1.076-0.036-2.088-0.332-2.973-0.824v0.082c0 3.179 2.264 5.833 5.265 6.437-0.55 0.148-1.13 0.23-1.73 0.23-0.424 0-0.834-0.042-1.236-0.122 0.836 2.61 3.259 4.507 6.131 4.559-2.246 1.76-5.077 2.805-8.152 2.805-0.53 0-1.052-0.032-1.566-0.090 2.905 1.866 6.355 2.953 10.062 2.953 12.076 0 18.677-10.002 18.677-18.677l-0.022-0.85c1.29-0.92 2.405-2.076 3.283-3.391z"></path>
</symbol>
</defs>
</svg>
