<svg aria-hidden="true" style="position:absolute;width:0;height:0" xmlns="http://www.w3.org/2000/svg" overflow="hidden"><defs><symbol id="facebook-letter-logo" viewBox="0 0 32 32"><path d="M11.761 6.197v4.406H8.533v5.387h3.228v16.009h6.631V15.99h4.449s.417-2.583.619-5.408h-5.043V6.898c0-.551.723-1.291 1.437-1.291h3.613V-.002h-4.912c-6.958 0-6.794 5.392-6.794 6.197z"/></symbol><symbol id="instagram-logo" viewBox="0 0 32 32"><path d="M4.107 0h23.785c2.259 0 4.107 1.672 4.107 4.107v23.786c0 2.435-1.848 4.107-4.107 4.107H4.107C1.847 32 0 30.328 0 27.893V4.107C0 1.672 1.848 0 4.107 0zm19.204 3.555c-.792 0-1.44.648-1.44 1.441v3.448c0 .792.648 1.441 1.44 1.441h3.617c.792 0 1.441-.648 1.441-1.441V4.996c0-.793-.648-1.441-1.441-1.441h-3.617zm5.072 9.978h-2.816c.266.87.411 1.792.411 2.745 0 5.323-4.454 9.637-9.947 9.637S6.085 21.6 6.085 16.278c0-.954.144-1.875.411-2.745H3.557V27.05c0 .7.572 1.272 1.272 1.272h22.284c.7 0 1.272-.572 1.272-1.272V13.533h-.001zM16.03 9.703c-3.549 0-6.427 2.788-6.427 6.227s2.878 6.227 6.427 6.227c3.549 0 6.427-2.788 6.427-6.227s-2.878-6.227-6.427-6.227z"/></symbol><symbol id="pinterest-logo" viewBox="0 0 32 32"><path d="M28.3 8.898c-.874-6.324-7.176-9.544-13.9-8.79C9.084.704 3.784 5.002 3.564 11.148c-.134 3.752.93 6.566 4.5 7.358 1.546-2.736-.498-3.334-.818-5.316C5.936 5.09 16.59-.442 22.17 5.218c3.864 3.92 1.318 15.972-4.906 14.718-5.962-1.196 2.92-10.79-1.838-12.672-3.868-1.532-5.922 4.68-4.088 7.768-1.076 5.31-3.392 10.31-2.454 16.968 3.04-2.208 4.066-6.43 4.906-10.836 1.528.93 2.346 1.892 4.294 2.042 7.184.558 11.202-7.172 10.216-14.308z"/></symbol><symbol id="searcher" viewBox="0 0 32 32"><path d="M31.217 27.435l-6.952-6.952c-.037-.037-.08-.063-.119-.097a13.09 13.09 0 0 0 2.166-7.23C26.312 5.89 20.422 0 13.156 0S0 5.89 0 13.156c0 7.266 5.89 13.156 13.156 13.156a13.09 13.09 0 0 0 7.23-2.166c.034.038.06.082.097.119l6.952 6.952a2.675 2.675 0 0 0 3.782-3.782zm-18.061-5.684a8.595 8.595 0 1 1 0-17.19 8.595 8.595 0 1 1 0 17.19z"/></symbol><symbol id="shopping-cart" viewBox="0 0 32 32"><path d="M31.815 6.686a1.022 1.022 0 0 0-.798-.438l-19.85-.856a1.026 1.026 0 1 0-.088 2.052l18.506.798-3.639 11.353H9.753L6.828 3.666a1.026 1.026 0 0 0-.635-.77L1.402 1.014a1.027 1.027 0 0 0-.751 1.911l4.26 1.674 2.977 16.208c.09.487.514.841 1.01.841h.494L8.264 24.78a.855.855 0 0 0 .805 1.146h.791a3.062 3.062 0 0 0-.791 2.053c0 1.698 1.382 3.08 3.08 3.08s3.08-1.382 3.08-3.08a3.06 3.06 0 0 0-.791-2.053h6.716a3.062 3.062 0 0 0-.791 2.053c0 1.698 1.382 3.08 3.08 3.08s3.08-1.382 3.08-3.08a3.06 3.06 0 0 0-.791-2.053h.962a.856.856 0 1 0 0-1.712H10.286l.924-2.567h15.484c.447 0 .842-.288.978-.713L31.95 7.586a1.024 1.024 0 0 0-.135-.9zM12.15 29.348c-.755 0-1.369-.614-1.369-1.369s.614-1.369 1.369-1.369 1.369.614 1.369 1.369-.614 1.369-1.369 1.369zm11.294 0c-.755 0-1.369-.614-1.369-1.369s.614-1.369 1.369-1.369 1.369.614 1.369 1.369-.614 1.369-1.369 1.369z"/></symbol><symbol id="twitter-logo" viewBox="0 0 32 32"><path d="M32 6.079a13.112 13.112 0 0 1-3.769 1.034 6.588 6.588 0 0 0 2.885-3.629 13.23 13.23 0 0 1-4.171 1.594 6.545 6.545 0 0 0-4.791-2.074 6.565 6.565 0 0 0-6.395 8.059A18.633 18.633 0 0 1 2.23 4.204a6.515 6.515 0 0 0-.888 3.299 6.562 6.562 0 0 0 2.919 5.463 6.56 6.56 0 0 1-2.973-.824v.082a6.572 6.572 0 0 0 5.265 6.437 6.65 6.65 0 0 1-1.73.23c-.424 0-.834-.042-1.236-.122a6.567 6.567 0 0 0 6.131 4.559 13.169 13.169 0 0 1-8.152 2.805c-.53 0-1.052-.032-1.566-.09a18.552 18.552 0 0 0 10.062 2.953c12.076 0 18.677-10.002 18.677-18.677l-.022-.85A13.117 13.117 0 0 0 32 6.078z"/></symbol></defs></svg>